<svg width="142" height="36" viewBox="0 0 142 36" fill="none" xmlns="http://www.w3.org/2000/svg">
<path d="M47.9657 24.0178V8.48245H50.8844V18.0009L55.6916 12.0087H59.346L54.4162 18.0009L59.3706 24.0178H55.7161L50.8844 18.0009V24.0178H47.9657Z" fill="#594F4F"/>
<path d="M69.5768 18.0009C69.5768 16.9899 69.2334 16.1268 68.5221 15.4117C67.8109 14.6966 66.9524 14.3267 65.9468 14.3267C64.9413 14.3267 64.0828 14.6966 63.3715 15.4117C62.6603 16.1268 62.3169 16.9899 62.3169 18.0009C62.3169 19.0366 62.6603 19.8997 63.3715 20.6395C64.0828 21.3546 64.9413 21.7245 65.9468 21.7245C66.977 21.7245 67.8354 21.3546 68.5221 20.6395C69.2334 19.8997 69.5768 19.0366 69.5768 18.0009ZM72.6181 18.0009C72.6181 19.8011 71.9559 21.3053 70.6314 22.5382C69.307 23.7465 67.7373 24.363 65.9223 24.363C64.1319 24.363 62.5622 23.7465 61.2132 22.5382C59.8888 21.3053 59.202 19.8011 59.202 18.0009C59.202 16.2255 59.8642 14.7212 61.1887 13.4883C62.5131 12.2553 64.0828 11.6388 65.8978 11.6388C67.7128 11.6388 69.2579 12.2553 70.6069 13.4883C71.9559 14.7212 72.6181 16.2255 72.6181 18.0009Z" fill="#594F4F"/>
<path d="M74.3885 24.0175V7.74234H77.3072V24.0175H74.3885Z" fill="#594F4F"/>
<path d="M91.9693 18.0007C91.9693 18.3953 91.9203 18.8392 91.7976 19.3323H82.1832C82.3794 20.0475 82.8209 20.6393 83.4586 21.1078C84.0963 21.5763 84.783 21.7983 85.5433 21.7983C86.2056 21.7983 86.8678 21.6257 87.4809 21.3051C88.0941 20.9845 88.5601 20.5653 88.879 20.0475L90.8656 21.7983C90.2524 22.5874 89.4921 23.2039 88.5601 23.6724C87.6281 24.1163 86.6225 24.3382 85.5433 24.3382C83.7284 24.3382 82.1832 23.7217 80.9323 22.5134C79.6815 21.2804 79.0438 19.7762 79.0438 17.9761C79.0438 16.176 79.6815 14.6717 80.9323 13.4634C82.2077 12.2551 83.7284 11.6386 85.5433 11.6386C87.3093 11.6386 88.8299 12.2551 90.0808 13.4881C91.3561 14.7457 91.9693 16.2253 91.9693 18.0007ZM82.2323 16.8418H88.8544C88.6827 16.0773 88.2903 15.4362 87.6772 14.943C87.064 14.4498 86.3772 14.2032 85.5679 14.2032C84.783 14.2032 84.0717 14.4498 83.4341 14.9676C82.8209 15.4362 82.4039 16.0773 82.2323 16.8418Z" fill="#594F4F"/>
<path d="M93.7362 24.0175V7.74234H96.6549V18.0006L101.462 12.0084H105.117L100.187 18.0006L105.141 24.0175H101.487L96.6549 18.0006V24.0175H93.7362Z" fill="#594F4F"/>
<path d="M105.596 14.4251V12.0085H106.699V9.22198H109.618V12.0331H111.654V14.4498H109.618V20.8612C109.618 21.1078 109.716 21.3297 109.912 21.5023C110.108 21.6749 110.354 21.7736 110.599 21.7736C110.942 21.7736 111.188 21.7243 111.359 21.601L111.923 23.9189C111.335 24.2148 110.624 24.3628 109.765 24.3628C108.858 24.3628 108.097 24.0669 107.533 23.4751C106.969 22.8832 106.675 22.1188 106.675 21.1818V14.4251H105.596Z" fill="#594F4F"/>
<path d="M113.186 12.0087H116.104V23.9931H113.186V12.0087ZM113.431 10.6031C113.088 10.2578 112.916 9.86329 112.916 9.37011C112.916 8.90158 113.088 8.48237 113.431 8.13714C113.774 7.79191 114.191 7.61929 114.657 7.61929C115.148 7.61929 115.54 7.79191 115.884 8.13714C116.227 8.48237 116.399 8.87692 116.399 9.37011C116.399 9.83863 116.227 10.2578 115.884 10.6031C115.54 10.9483 115.148 11.1209 114.657 11.1209C114.167 11.1209 113.774 10.9483 113.431 10.6031Z" fill="#594F4F"/>
<path d="M138.86 18.0009C138.86 16.9899 138.517 16.1268 137.805 15.4117C137.094 14.6966 136.236 14.3267 135.23 14.3267C134.224 14.3267 133.366 14.6966 132.655 15.4117C131.943 16.1268 131.6 16.9899 131.6 18.0009C131.6 19.0366 131.943 19.8997 132.655 20.6395C133.366 21.3546 134.224 21.7245 135.23 21.7245C136.26 21.7245 137.119 21.3546 137.805 20.6395C138.517 19.8997 138.86 19.0366 138.86 18.0009ZM141.901 18.0009C141.901 19.8011 141.239 21.3053 139.915 22.5382C138.59 23.7465 137.02 24.363 135.206 24.363C133.415 24.363 131.845 23.7465 130.496 22.5382C129.172 21.3053 128.485 19.8011 128.485 18.0009C128.485 16.2255 129.147 14.7212 130.472 13.4883C131.796 12.2553 133.366 11.6388 135.181 11.6388C136.996 11.6388 138.541 12.2553 139.89 13.4883C141.239 14.7212 141.901 16.2255 141.901 18.0009Z" fill="#594F4F"/>
<path d="M125.889 12.0089L123.044 18.1491H122.97L120.125 12.0089H117.133L122.995 24.166L128.905 12.0089H125.889Z" fill="#594F4F"/>
<path d="M25.5469 1.65788L17.9902 9.21455V12.7961L27.8491 2.93722C27.1171 2.4571 26.3479 2.02891 25.5469 1.65788Z" fill="#547980"/>
<path d="M22.8616 0.666562L17.9902 5.53795V1.95638L19.8519 0.0947266C20.8834 0.200719 21.8892 0.393823 22.8616 0.666562Z" fill="#594F4F"/>
<path d="M29.9319 4.53102L17.9902 16.4727V19.5263L29.9321 31.4681C30.5642 30.9073 31.1565 30.3026 31.7043 29.6588L20.045 17.9995L31.7042 6.34031C31.1564 5.69657 30.5641 5.09189 29.9319 4.53102Z" fill="#45ADA8"/>
<path d="M33.2588 8.46237L23.7216 17.9995L33.2588 27.5368C33.7262 26.7902 34.1403 26.0068 34.4958 25.1921L27.3032 17.9995L34.4957 10.807C34.1402 9.99227 33.7261 9.20896 33.2588 8.46237Z" fill="#86E09C"/>
<path d="M35.4347 13.5446L30.9798 17.9995L35.4347 22.4545C35.6882 21.459 35.8587 20.4305 35.9384 19.3765L34.5614 17.9995L35.9384 16.6225C35.8586 15.5686 35.6881 14.54 35.4347 13.5446Z" fill="#B5E8D4"/>
<path d="M27.8493 33.0619L17.9902 23.2029V26.7845L25.547 34.3413C26.3481 33.9703 27.1172 33.5421 27.8493 33.0619Z" fill="#547980"/>
<path d="M22.8618 35.3326L17.9902 30.4611L17.9902 34.0427L19.8521 35.9045C20.8836 35.7985 21.8893 35.6054 22.8618 35.3326Z" fill="#594F4F"/>
<path d="M15.4276 0.182285C16.2674 0.0621561 17.126 0 17.999 0V36C17.126 36 16.2674 35.9378 15.4276 35.8177L15.4276 0.182285Z" fill="#CC6248"/>
<path d="M10.2847 1.73219C11.1093 1.34048 11.9684 1.00962 12.8562 0.7454L12.8562 35.2546C11.9684 34.9904 11.1093 34.6595 10.2847 34.2678L10.2847 1.73219Z" fill="#E4825F"/>
<path d="M5.14188 5.40261C5.92824 4.60015 6.78911 3.87099 7.71331 3.22634L7.71331 32.7737C6.78911 32.129 5.92823 31.3998 5.14188 30.5974L5.14188 5.40261Z" fill="#EEA35F"/>
<path d="M-0.000974407 17.9911C0.000666906 14.601 0.939488 11.4301 2.57046 8.72334L2.57045 27.2767C0.939486 24.5699 0.000666092 21.399 -0.000974409 18.0089C-0.000975845 18.0059 -0.000976562 18.003 -0.000976562 18C-0.000976562 17.997 -0.000975844 17.9941 -0.000974407 17.9911Z" fill="#FFBF86"/>
</svg>
